<?xml version="1.0" encoding="utf-8"?><svg xmlns="http://www.w3.org/2000/svg" xmlns:xlink="http://www.w3.org/1999/xlink" width="1314" height="715" preserveAspectRatio="xMidYMid" viewBox="0 0 1314 715" style="z-index:1;margin-right:-2px;display:block;background-repeat-y:initial;background-repeat-x:initial;background-color:rgb(255, 255, 255);animation-play-state:paused" ><g transform="" style="animation-play-state:paused" ><linearGradient id="lg-0.647394827271627" x1="0" x2="1" y1="0" y2="0" style="animation-play-state:paused" ><stop stop-color="#ff00ff" offset="0" style="animation-play-state:paused" ></stop>

  
<stop stop-color="#00ffff" offset="1" style="animation-play-state:paused" ></stop></linearGradient>
<path d="M 0 0 L 0 597.641 Q 131.4 577.483 262.8 534.319 T 525.6 510.19 T 788.4 447.201 T 1051.2 427.385 T 1314 305.223 L 1314 0 Z" fill="url(#lg-0.647394827271627)" opacity="0.4" style="opacity:0.4;animation-play-state:paused" ></path>
<path d="M 0 0 L 0 585.964 Q 131.4 574.563 262.8 532.702 T 525.6 538.367 T 788.4 398.821 T 1051.2 347.416 T 1314 278.827 L 1314 0 Z" fill="url(#lg-0.647394827271627)" opacity="0.4" style="opacity:0.4;animation-play-state:paused" ></path>
<path d="M 0 0 L 0 624.443 Q 131.4 623.671 262.8 581.496 T 525.6 552.807 T 788.4 475.739 T 1051.2 441.416 T 1314 281.928 L 1314 0 Z" fill="url(#lg-0.647394827271627)" opacity="0.4" style="opacity:0.4;animation-play-state:paused" ></path>
<path d="M 0 0 L 0 649.9 Q 131.4 586.259 262.8 560.602 T 525.6 536.904 T 788.4 478.61 T 1051.2 369.87 T 1314 266.103 L 1314 0 Z" fill="url(#lg-0.647394827271627)" opacity="0.4" style="opacity:0.4;animation-play-state:paused" ></path>
<path d="M 0 0 L 0 657.5 Q 131.4 600.394 262.8 559.354 T 525.6 539.714 T 788.4 434.41 T 1051.2 345.369 T 1314 262.334 L 1314 0 Z" fill="url(#lg-0.647394827271627)" opacity="0.4" style="opacity:0.4;animation-play-state:paused" ></path></g></svg>